<svg width="18" height="18" viewBox="0 0 18 18" fill="none" xmlns="http://www.w3.org/2000/svg">
<path fill-rule="evenodd" clip-rule="evenodd" d="M1.28739 0C0.582459 0 0.00180023 0.580659 0.00180023 1.28559L8.6133e-05 12.4291C8.6133e-05 13.0012 0.858005 13.0012 0.858005 12.4291L0.858862 1.28559C0.858862 1.0409 1.0427 0.857061 1.28739 0.857061H13.2863C13.5309 0.857061 13.7148 1.0409 13.7148 1.28559V8.99914C13.7062 9.57852 14.5804 9.57852 14.5718 8.99914V1.28559C14.5718 0.580659 13.9912 0 13.2863 0H1.28739ZM3.85858 3.42824C3.74492 3.42824 3.63592 3.47339 3.55556 3.55376C3.47519 3.63412 3.43005 3.74312 3.43005 3.85678C3.43005 3.97043 3.47519 4.07943 3.55556 4.15979C3.63592 4.24016 3.74492 4.28531 3.85858 4.28531C3.97223 4.28531 4.08123 4.24016 4.16159 4.15979C4.24196 4.07943 4.28711 3.97043 4.28711 3.85678C4.28711 3.74312 4.24196 3.63412 4.16159 3.55376C4.08123 3.47339 3.97223 3.42824 3.85858 3.42824ZM5.52985 3.4291C4.97147 3.46767 5.01132 4.30073 5.57098 4.28616H10.7151C11.2743 4.27416 11.2743 3.4411 10.7151 3.4291H5.57098C5.55728 3.42845 5.54355 3.42845 5.52985 3.4291ZM3.85858 5.99943C3.74492 5.99943 3.63592 6.04458 3.55556 6.12494C3.47519 6.20531 3.43005 6.31431 3.43005 6.42796C3.43005 6.54161 3.47519 6.65061 3.55556 6.73098C3.63592 6.81134 3.74492 6.85649 3.85858 6.85649C3.97223 6.85649 4.08123 6.81134 4.16159 6.73098C4.24196 6.65061 4.28711 6.54161 4.28711 6.42796C4.28711 6.31431 4.24196 6.20531 4.16159 6.12494C4.08123 6.04458 3.97223 5.99943 3.85858 5.99943ZM10.7622 5.99943C10.7463 5.99943 10.7305 5.99943 10.7151 6.00114H5.57098C5.55728 6.0005 5.54355 6.0005 5.52985 6.00114C5.00447 6.06628 5.04132 6.84021 5.57098 6.85478H10.7151C11.3034 6.90663 11.3527 6.01186 10.7622 5.99943ZM5.57098 8.56975C5.01175 8.58175 5.01175 9.41482 5.57098 9.42682H10.7151C11.2987 9.43967 11.2987 8.5569 10.7151 8.56975H5.57098ZM3.85858 8.57061C3.74492 8.57061 3.63592 8.61576 3.55556 8.69613C3.47519 8.77649 3.43005 8.88549 3.43005 8.99914C3.43005 9.1128 3.47519 9.2218 3.55556 9.30216C3.63592 9.38253 3.74492 9.42767 3.85858 9.42767C3.97223 9.42767 4.08123 9.38253 4.16159 9.30216C4.24196 9.2218 4.28711 9.1128 4.28711 8.99914C4.28711 8.88549 4.24196 8.77649 4.16159 8.69613C4.08123 8.61576 3.97223 8.57061 3.85858 8.57061ZM3.85858 11.1418C3.74492 11.1418 3.63592 11.1869 3.55556 11.2673C3.47519 11.3477 3.43005 11.4567 3.43005 11.5703C3.43005 11.684 3.47519 11.793 3.55556 11.8733C3.63592 11.9537 3.74492 11.9989 3.85858 11.9989C3.97223 11.9989 4.08123 11.9537 4.16159 11.8733C4.24196 11.793 4.28711 11.684 4.28711 11.5703C4.28711 11.4567 4.24196 11.3477 4.16159 11.2673C4.08123 11.1869 3.97223 11.1418 3.85858 11.1418ZM5.57098 11.1418C4.98733 11.1289 4.98733 12.0117 5.57098 11.9989H9.85715C10.4408 12.0117 10.4408 11.1289 9.85715 11.1418H5.57098ZM3.85858 13.713C3.74492 13.713 3.63592 13.7581 3.55556 13.8385C3.47519 13.9189 3.43005 14.0279 3.43005 14.1415C3.43005 14.2552 3.47519 14.3642 3.55556 14.4445C3.63592 14.5249 3.74492 14.57 3.85858 14.57C3.97223 14.57 4.08123 14.5249 4.16159 14.4445C4.24196 14.3642 4.28711 14.2552 4.28711 14.1415C4.28711 14.0279 4.24196 13.9189 4.16159 13.8385C4.08123 13.7581 3.97223 13.713 3.85858 13.713ZM5.52985 13.713C4.95819 13.7404 4.9989 14.5983 5.57098 14.5709H9.00009C9.57218 14.5709 9.57218 13.713 9.00009 13.713H5.57098C5.55728 13.7123 5.54355 13.7123 5.52985 13.713ZM0.424331 14.1338C0.367689 14.1344 0.311719 14.1461 0.259658 14.1685C0.207596 14.1908 0.160477 14.2232 0.121025 14.2638C0.0815734 14.3045 0.0505716 14.3526 0.0298129 14.4053C0.00905419 14.458 -0.00104949 14.5143 8.6133e-05 14.5709L0.00180023 16.7127C0.00180023 17.4176 0.582459 17.9983 1.28739 17.9983H9.85801C10.4374 18.0069 10.4374 17.1327 9.85801 17.1412H1.28739C1.0427 17.1412 0.858862 16.9574 0.858862 16.7127L0.858005 14.5709C0.859158 14.5135 0.848754 14.4564 0.827411 14.4031C0.806069 14.3497 0.774223 14.3012 0.733768 14.2605C0.693312 14.2197 0.645072 14.1875 0.591914 14.1657C0.538757 14.1439 0.481767 14.1331 0.424331 14.1338ZM14.1442 10.2839C12.0191 10.2839 10.2882 12.0156 10.2882 14.1407C10.2882 16.2657 12.0195 18 14.1442 18C16.2693 18 18.0001 16.2657 18.0001 14.1407C18.0001 12.0156 16.2688 10.2839 14.1442 10.2839ZM14.1442 11.1418C14.5382 11.1409 14.9286 11.2178 15.2929 11.3682C15.6571 11.5186 15.988 11.7395 16.2667 12.0181C16.5453 12.2968 16.7662 12.6277 16.9166 12.992C17.067 13.3562 17.1439 13.7466 17.143 14.1407C17.144 14.5349 17.0671 14.9254 16.9168 15.2898C16.7664 15.6542 16.5456 15.9853 16.267 16.2642C15.9883 16.5431 15.6574 16.7642 15.2931 16.9148C14.9288 17.0655 14.5384 17.1427 14.1442 17.1421C13.75 17.1427 13.3595 17.0655 12.9952 16.9148C12.6309 16.7642 12.3 16.5431 12.0214 16.2642C11.7427 15.9853 11.5219 15.6542 11.3716 15.2898C11.2212 14.9254 11.1444 14.5349 11.1453 14.1407C11.1444 13.7466 11.2214 13.3562 11.3717 12.992C11.5221 12.6277 11.743 12.2968 12.0216 12.0181C12.3003 11.7395 12.6312 11.5186 12.9955 11.3682C13.3597 11.2178 13.7501 11.1409 14.1442 11.1418ZM15.4975 12.8024C15.3865 12.806 15.2813 12.8525 15.2039 12.9322L13.6886 14.4471L13.0844 13.8403C13.0447 13.7999 12.9973 13.7677 12.9451 13.7457C12.8929 13.7237 12.8369 13.7122 12.7802 13.7119C12.7235 13.7117 12.6674 13.7226 12.615 13.7442C12.5626 13.7657 12.5149 13.7974 12.4748 13.8375C12.4348 13.8775 12.403 13.9251 12.3814 13.9775C12.3597 14.0299 12.3487 14.086 12.3489 14.1427C12.3491 14.1993 12.3604 14.2554 12.3824 14.3076C12.4043 14.3599 12.4364 14.4073 12.4768 14.4471L13.3852 15.3551C13.425 15.395 13.4723 15.4266 13.5243 15.4481C13.5763 15.4697 13.6321 15.4808 13.6884 15.4808C13.7447 15.4808 13.8005 15.4697 13.8525 15.4481C13.9046 15.4266 13.9518 15.395 13.9916 15.3551L15.8116 13.539C15.8741 13.4787 15.9168 13.4009 15.9341 13.3158C15.9513 13.2307 15.9423 13.1423 15.9083 13.0625C15.8742 12.9826 15.8167 12.915 15.7433 12.8685C15.67 12.8221 15.5842 12.799 15.4975 12.8024Z" fill="#969696"/>
</svg>
