<svg width="18" height="18" viewBox="0 0 18 18" fill="none" xmlns="http://www.w3.org/2000/svg">
<path d="M17.5645 15.3949L15.2582 13.0904C15.1377 12.97 14.9826 12.8903 14.8145 12.8625C14.6465 12.8347 14.4739 12.8601 14.3211 12.9353L13.5406 12.155C14.7097 10.634 15.2561 8.72532 15.0689 6.8163C14.8818 4.90728 13.975 3.14096 12.5328 1.87581C11.0905 0.610658 9.22072 -0.0585413 7.30293 0.00402245C5.38513 0.0665862 3.56299 0.856226 2.2063 2.21269C0.852455 3.56952 0.0651448 5.39007 0.00386493 7.3055C-0.057415 9.22094 0.611918 11.0881 1.87627 12.5286C3.14062 13.9691 4.90545 14.8754 6.81323 15.0638C8.72101 15.2522 10.6291 14.7086 12.1509 13.5431L12.9314 14.3234C12.8564 14.4763 12.8311 14.6489 12.8591 14.8169C12.8872 14.9849 12.9671 15.1399 13.0877 15.2602L15.394 17.5657C15.6834 17.8469 16.0718 18.0028 16.4753 18C16.8788 17.9971 17.2649 17.8356 17.5502 17.5504C17.8355 17.2651 17.9971 16.8791 18 16.4758C18.0028 16.0724 17.8468 15.6842 17.5656 15.3949H17.5645ZM12.007 12.9849L12 12.9912C10.6045 14.1348 8.82256 14.6979 7.02314 14.5641C5.22372 14.4303 3.54473 13.6097 2.33394 12.2723C1.12315 10.9349 0.473324 9.18319 0.519068 7.37998C0.564813 5.57678 1.30262 3.86025 2.57966 2.58592C3.85529 1.31383 5.57095 0.580124 7.37223 0.536363C9.17352 0.492602 10.9228 1.14213 12.2587 2.35078C13.5947 3.55943 14.4152 5.23485 14.5508 7.03094C14.6864 8.82704 14.1267 10.6066 12.9874 12.002L12.9797 12.0111C12.8347 12.187 12.6805 12.3567 12.5173 12.5202C12.354 12.6836 12.1839 12.8385 12.007 12.9849ZM12.5598 13.2051C12.6728 13.1045 12.7836 13.001 12.8913 12.8934C12.999 12.7858 13.1025 12.675 13.2031 12.562L13.9171 13.2761L13.2742 13.9188L12.5598 13.2051ZM17.1912 17.1925C17.0021 17.3812 16.7459 17.4872 16.4788 17.4872C16.2116 17.4872 15.9554 17.3812 15.7663 17.1925L13.46 14.8869C13.4059 14.8327 13.3755 14.7593 13.3755 14.6827C13.3755 14.6062 13.4059 14.5327 13.46 14.4785L14.4763 13.4626C14.5305 13.4085 14.604 13.3782 14.6806 13.3782C14.7571 13.3782 14.8306 13.4085 14.8848 13.4626L17.1912 15.7681C17.3799 15.9571 17.486 16.2133 17.486 16.4803C17.486 16.7474 17.3799 17.0035 17.1912 17.1925ZM10.4161 5.66786H9.3252V5.26226C9.32501 5.06555 9.24683 4.87693 9.10779 4.73774C8.96874 4.59854 8.78017 4.52012 8.5834 4.51965H6.51424C6.31727 4.51984 6.12843 4.59814 5.98916 4.73736C5.84989 4.87659 5.77156 5.06537 5.77138 5.26226V5.66786H4.68049C4.49564 5.66795 4.31838 5.74141 4.18767 5.87207C4.05695 6.00274 3.98348 6.17994 3.98338 6.36474V9.88921C3.98348 10.074 4.05694 10.2513 4.18764 10.382C4.31835 10.5127 4.49561 10.5863 4.68049 10.5864H10.4164C10.6013 10.5862 10.7785 10.5126 10.9092 10.3819C11.0399 10.2512 11.1134 10.074 11.1135 9.88921V6.36474C11.1134 6.17991 11.0398 6.00271 10.909 5.87205C10.7783 5.74139 10.601 5.66795 10.4161 5.66786ZM6.29887 5.26226C6.29897 5.20528 6.32165 5.15067 6.36195 5.11038C6.40225 5.07009 6.45689 5.04742 6.51388 5.04732H8.5834C8.64039 5.04742 8.69502 5.07009 8.73533 5.11038C8.77563 5.15067 8.79831 5.20528 8.7984 5.26226V5.66786H6.29993L6.29887 5.26226ZM10.5857 9.88921C10.5857 9.93418 10.5678 9.97731 10.536 10.0091C10.5042 10.0409 10.4611 10.0588 10.4161 10.0588H4.68014C4.63522 10.0587 4.59217 10.0408 4.56043 10.009C4.5287 9.97719 4.51088 9.93412 4.51088 9.88921V7.6519L6.75599 8.62879V8.80046C6.75618 8.93568 6.80999 9.06531 6.90564 9.16093C7.00129 9.25655 7.13097 9.31035 7.26624 9.31053H7.82928C7.96455 9.31035 8.09422 9.25655 8.18987 9.16093C8.28552 9.06531 8.33934 8.93568 8.33953 8.80046V8.62879L10.5857 7.6519V9.88921ZM7.28454 8.78287V8.2552H7.81239V8.78287H7.28454ZM10.5857 7.07498L8.30997 8.06489C8.27464 7.96585 8.20957 7.88015 8.12365 7.81951C8.03773 7.75887 7.93516 7.72625 7.82998 7.72612H7.26694C7.16192 7.72682 7.05967 7.75985 6.9741 7.82071C6.88852 7.88158 6.82379 7.96733 6.78872 8.06629L4.51158 7.07498V6.36474C4.51168 6.31989 4.52954 6.2769 4.56126 6.24519C4.59299 6.21348 4.63598 6.19562 4.68085 6.19553H10.4168C10.4617 6.19553 10.5048 6.21335 10.5366 6.24507C10.5684 6.27679 10.5863 6.31983 10.5864 6.36474L10.5857 7.07498ZM11.8838 3.21913C9.4934 0.829491 5.60352 0.829491 3.21308 3.21913C2.06327 4.36855 1.41731 5.92751 1.41731 7.55305C1.41731 9.17858 2.06327 10.7375 3.21308 11.887C4.3629 13.0364 5.92238 13.6821 7.54846 13.6821C9.17455 13.6821 10.734 13.0364 11.8838 11.887C12.4532 11.3178 12.9048 10.6422 13.2129 9.89855C13.521 9.15493 13.6796 8.35793 13.6796 7.55305C13.6796 6.74816 13.521 5.95116 13.2129 5.20754C12.9048 4.46393 12.4532 3.78826 11.8838 3.21913ZM11.5108 11.5141C10.5942 12.4307 9.38792 13.0011 8.09765 13.1283C6.80738 13.2555 5.51291 12.9315 4.43482 12.2115C3.35672 11.4916 2.56171 10.4202 2.18523 9.17995C1.80876 7.9397 1.87413 6.60733 2.37019 5.40986C2.86626 4.21239 3.76233 3.22391 4.90572 2.61286C6.04911 2.00181 7.36908 1.80599 8.64071 2.05877C9.91234 2.31155 11.057 2.99728 11.8795 3.99913C12.7021 5.00098 13.1517 6.25696 13.1517 7.55305C13.1527 8.28879 13.0082 9.01747 12.7266 9.69723C12.445 10.377 12.0319 10.9944 11.5108 11.5141Z" fill="#969696"/>
</svg>
